<svg id="Layer_1" data-name="Layer 1" xmlns="http://www.w3.org/2000/svg" viewBox="0 0 538.47 430.03"><defs><style>.cls-1{fill:#4b4d4b;}.cls-2{fill:#00c3b5;}.cls-2,.cls-3,.cls-4,.cls-5,.cls-6{stroke:#fff;stroke-linejoin:round;stroke-width:2.13px;}.cls-3{fill:#81d385;}.cls-4{fill:#ffe243;}.cls-5{fill:#ffa353;}.cls-6{fill:#ffb677;}</style></defs><title>logo</title><path class="cls-1" d="M442.18,245.92H943.28c10.27,0,18.68,6.16,18.68,13.68V483.54c0,7.53-8.41,13.68-18.68,13.68L698.6,512.63a93,93,0,0,1-19.35,0L442.18,497.23c-10.27,0-18.68-6.16-18.68-13.68V259.61C423.5,252.08,431.9,245.92,442.18,245.92Z" transform="translate(-423.5 -83.09)"/><path class="cls-2" d="M692.73,483.24s111.59-40.89,242.51-8.15V228.59s-130.62-84.74-242.51,0Z" transform="translate(-423.5 -83.09)"/><path class="cls-3" d="M692.73,475.18S770.29,411.83,876.5,424V172.38s-106.55-39.8-183.77,48.15Z" transform="translate(-423.5 -83.09)"/><path class="cls-4" d="M692.73,477s43.53-85.82,125-94.17V126s-82.47,5.14-125,96.29Z" transform="translate(-423.5 -83.09)"/><path class="cls-5" d="M692.73,483.24S702.24,375,759,346.06V84.15s-58.4,50.07-66.29,144.44Z" transform="translate(-423.5 -83.09)"/><path class="cls-2" d="M692.73,483.24s-111.59-40.89-242.51-8.15V228.59s130.62-84.74,242.51,0Z" transform="translate(-423.5 -83.09)"/><path class="cls-3" d="M692.73,475.18S615.17,411.83,509,424V172.38s106.55-39.8,183.77,48.15Z" transform="translate(-423.5 -83.09)"/><path class="cls-4" d="M692.73,477s-43.53-85.82-125-94.17V126s82.47,5.14,125,96.29Z" transform="translate(-423.5 -83.09)"/><path class="cls-6" d="M692.73,483.24S683.23,375,626.45,346.06V84.15s58.4,50.07,66.29,144.44Z" transform="translate(-423.5 -83.09)"/></svg>